<svg xmlns="http://www.w3.org/2000/svg" width="1800" height="920" viewBox="0 20 1800 920" role="img" aria-labelledby="title desc">
  <title id="title">Linkual Log Deployment Architecture</title>
  <desc id="desc">Deployment-oriented architecture diagram for Linkual Log, centered on a lightweight cloud server physical instance with Nginx, Docker Compose services, JSON data volumes, client entrypoints, external LLM API, Git, and Zensical static website generation.</desc>
  <defs>
    <style>
      text {
        font-family: Inter, ui-sans-serif, system-ui, -apple-system, BlinkMacSystemFont, "Segoe UI", sans-serif;
        fill: #162033;
        text-rendering: geometricPrecision;
      }
      .title {
        font-size: 38px;
        font-weight: 780;
      }
      .section-title {
        font-size: 18px;
        font-weight: 780;
        fill: #172033;
      }
      .small-title {
        font-size: 18px;
        font-weight: 760;
      }
      .node-title {
        font-size: 17px;
        font-weight: 760;
        fill: #172033;
      }
      .node-subtitle {
        font-size: 13.5px;
        font-weight: 610;
        fill: #4a5872;
      }
      .label {
        font-size: 15px;
        font-weight: 650;
      }
      .small {
        font-size: 13px;
        font-weight: 620;
      }
      .tiny {
        font-size: 12px;
        font-weight: 620;
      }
      .server-shell {
        fill: #f9fbff;
        stroke: #5f76a8;
        stroke-width: 3;
      }
      .server-header {
        fill: #e8efff;
      }
      .zone-entry-header {
        fill: #eefbf4;
      }
      .zone-docker-header {
        fill: #e7f3ff;
      }
      .zone-data-header {
        fill: #fff0d6;
      }
      .zone-external-header {
        fill: #fff1f3;
      }
      .zone-build-header {
        fill: #f1ebff;
      }
      .zone-legend-header {
        fill: #eef2f7;
      }
      .zone {
        fill: #ffffff;
        stroke: #cbd7ea;
        stroke-width: 2;
      }
      .zone-docker {
        fill: #f4f9ff;
        stroke: #83b7df;
        stroke-width: 2.5;
      }
      .zone-data {
        fill: #fff7e8;
        stroke: #d8a548;
        stroke-width: 2.5;
      }
      .zone-edge {
        fill: #eefbf4;
        stroke: #73b991;
        stroke-width: 2.5;
      }
      .node {
        fill: #ffffff;
        stroke: #b7c4d8;
        stroke-width: 2;
      }
      .node-client {
        fill: #ffffff;
        stroke: #73b991;
      }
      .node-service {
        fill: #ffffff;
        stroke: #7fb1dc;
      }
      .node-data {
        fill: #fffaf1;
        stroke: #d8a548;
      }
      .node-data-sync {
        fill: #f8f5ff;
        stroke: #7b5bb2;
      }
      .node-external {
        fill: #fff7f8;
        stroke: #d88a98;
      }
      .node-qq-platform {
        fill: #f1f8ff;
        stroke: #58a6e7;
      }
      .node-build {
        fill: #f8f5ff;
        stroke: #a78bd8;
      }
      .chip {
        fill: #eef2f7;
        stroke: #cbd5e1;
        stroke-width: 1.4;
      }
      .chip-text {
        font-size: 12px;
        font-weight: 720;
        fill: #33415c;
      }
      .mono {
        font-family: "JetBrains Mono", "SFMono-Regular", Consolas, monospace;
        font-size: 11.5px;
        font-weight: 720;
      }
      .arrow {
        fill: none;
        stroke: #41516d;
        stroke-width: 2.5;
        stroke-linecap: square;
        stroke-linejoin: miter;
        marker-end: url(#arrow);
      }
      .arrow-data {
        fill: none;
        stroke: #a06b1c;
        stroke-width: 2.5;
        stroke-linecap: square;
        stroke-linejoin: miter;
        marker-end: url(#arrow-data);
      }
      .arrow-llm {
        fill: none;
        stroke: #b7445a;
        stroke-width: 2.5;
        stroke-linecap: square;
        stroke-linejoin: miter;
        marker-end: url(#arrow-llm);
      }
      .arrow-ws {
        fill: none;
        stroke: #348160;
        stroke-width: 2.5;
        stroke-linecap: square;
        stroke-linejoin: miter;
        stroke-dasharray: 10 7;
        marker-end: url(#arrow-ws);
      }
      .arrow-build {
        fill: none;
        stroke: #7b5bb2;
        stroke-width: 2.3;
        stroke-linecap: square;
        stroke-linejoin: miter;
        marker-end: url(#arrow-build);
      }
      .shadow {
        filter: url(#shadow);
      }
    </style>
    <marker id="arrow" markerWidth="12" markerHeight="12" refX="10" refY="6" orient="auto" markerUnits="strokeWidth">
      <path d="M2,2 L10,6 L2,10 Z" fill="#41516d"/>
    </marker>
    <marker id="arrow-data" markerWidth="12" markerHeight="12" refX="10" refY="6" orient="auto" markerUnits="strokeWidth">
      <path d="M2,2 L10,6 L2,10 Z" fill="#a06b1c"/>
    </marker>
    <marker id="arrow-llm" markerWidth="12" markerHeight="12" refX="10" refY="6" orient="auto" markerUnits="strokeWidth">
      <path d="M2,2 L10,6 L2,10 Z" fill="#b7445a"/>
    </marker>
    <marker id="arrow-ws" markerWidth="12" markerHeight="12" refX="10" refY="6" orient="auto" markerUnits="strokeWidth">
      <path d="M2,2 L10,6 L2,10 Z" fill="#348160"/>
    </marker>
    <marker id="arrow-build" markerWidth="12" markerHeight="12" refX="10" refY="6" orient="auto" markerUnits="strokeWidth">
      <path d="M2,2 L10,6 L2,10 Z" fill="#7b5bb2"/>
    </marker>
    <filter id="shadow" x="-20%" y="-20%" width="140%" height="140%">
      <feDropShadow dx="0" dy="10" stdDeviation="12" flood-color="#1d2939" flood-opacity="0.08"/>
    </filter>
    <clipPath id="server-clip">
      <rect width="930" height="790" rx="24"/>
    </clipPath>
    <clipPath id="entry-clip">
      <rect width="300" height="490" rx="18"/>
    </clipPath>
    <clipPath id="docker-clip">
      <rect width="862" height="548" rx="18"/>
    </clipPath>
    <clipPath id="volume-clip">
      <rect width="810" height="146" rx="18"/>
    </clipPath>
    <clipPath id="external-clip">
      <rect width="320" height="590" rx="18"/>
    </clipPath>
    <clipPath id="source-clip">
      <rect width="300" height="285" rx="18"/>
    </clipPath>
    <clipPath id="legend-clip">
      <rect width="320" height="175" rx="18"/>
    </clipPath>
    <symbol id="logo-docker" viewBox="0 0 24 24">
      <path fill="#2496ED" d="M13.983 11.078h2.119a.186.186 0 00.186-.185V9.006a.186.186 0 00-.186-.186h-2.119a.185.185 0 00-.185.185v1.888c0 .102.083.185.185.185m-2.954-5.43h2.118a.186.186 0 00.186-.186V3.574a.186.186 0 00-.186-.185h-2.118a.185.185 0 00-.185.185v1.888c0 .102.082.185.185.185m0 2.716h2.118a.187.187 0 00.186-.186V6.29a.186.186 0 00-.186-.185h-2.118a.185.185 0 00-.185.185v1.887c0 .102.082.185.185.186m-2.93 0h2.12a.186.186 0 00.184-.186V6.29a.185.185 0 00-.185-.185H8.1a.185.185 0 00-.185.185v1.887c0 .102.083.185.185.186m-2.964 0h2.119a.186.186 0 00.185-.186V6.29a.185.185 0 00-.185-.185H5.136a.186.186 0 00-.186.185v1.887c0 .102.084.185.186.186m5.893 2.715h2.118a.186.186 0 00.186-.185V9.006a.186.186 0 00-.186-.186h-2.118a.185.185 0 00-.185.185v1.888c0 .102.082.185.185.185m-2.93 0h2.12a.185.185 0 00.184-.185V9.006a.185.185 0 00-.184-.186h-2.12a.185.185 0 00-.184.185v1.888c0 .102.083.185.185.185m-2.964 0h2.119a.185.185 0 00.185-.185V9.006a.185.185 0 00-.184-.186h-2.12a.186.186 0 00-.186.186v1.887c0 .102.084.185.186.185m-2.92 0h2.12a.185.185 0 00.184-.185V9.006a.185.185 0 00-.184-.186h-2.12a.185.185 0 00-.184.185v1.888c0 .102.082.185.185.185M23.763 9.89c-.065-.051-.672-.51-1.954-.51-.338.001-.676.03-1.01.087-.248-1.7-1.653-2.53-1.716-2.566l-.344-.199-.226.327c-.284.438-.49.922-.612 1.43-.23.97-.09 1.882.403 2.661-.595.332-1.55.413-1.744.42H.751a.751.751 0 00-.75.748 11.376 11.376 0 00.692 4.062c.545 1.428 1.355 2.48 2.41 3.124 1.18.723 3.1 1.137 5.275 1.137.983.003 1.963-.086 2.93-.266a12.248 12.248 0 003.823-1.389c.98-.567 1.86-1.288 2.61-2.136 1.252-1.418 1.998-2.997 2.553-4.4h.221c1.372 0 2.215-.549 2.68-1.009.309-.293.55-.65.707-1.046l.098-.288Z"/>
    </symbol>
    <symbol id="logo-tampermonkey" viewBox="0 0 24 24">
      <path fill="#00485B" d="M5.955.002C3-.071.275 2.386.043 5.335c-.069 3.32-.011 6.646-.03 9.969.06 1.87-.276 3.873.715 5.573 1.083 2.076 3.456 3.288 5.77 3.105 4.003-.011 8.008.022 12.011-.017 2.953-.156 5.478-2.815 5.482-5.772-.007-4.235.023-8.473-.015-12.708C23.82 2.533 21.16.007 18.205.003c-4.083-.005-8.167 0-12.25-.002zm.447 12.683c2.333-.046 4.506 1.805 4.83 4.116.412 2.287-1.056 4.716-3.274 5.411-2.187.783-4.825-.268-5.874-2.341-1.137-2.039-.52-4.827 1.37-6.197a4.896 4.896 0 012.948-.99zm11.245 0c2.333-.046 4.505 1.805 4.829 4.116.413 2.287-1.056 4.716-3.273 5.411-2.188.783-4.825-.268-5.875-2.341-1.136-2.039-.52-4.827 1.37-6.197a4.896 4.896 0 012.949-.99z"/>
    </symbol>
    <symbol id="logo-react" viewBox="0 0 24 24">
      <path fill="#61DAFB" d="M14.23 12.004a2.236 2.236 0 0 1-2.235 2.236 2.236 2.236 0 0 1-2.236-2.236 2.236 2.236 0 0 1 2.235-2.236 2.236 2.236 0 0 1 2.236 2.236zm2.648-10.69c-1.346 0-3.107.96-4.888 2.622-1.78-1.653-3.542-2.602-4.887-2.602-.41 0-.783.093-1.106.278-1.375.793-1.683 3.264-.973 6.365C1.98 8.917 0 10.42 0 12.004c0 1.59 1.99 3.097 5.043 4.03-.704 3.113-.39 5.588.988 6.38.32.187.69.275 1.102.275 1.345 0 3.107-.96 4.888-2.624 1.78 1.654 3.542 2.603 4.887 2.603.41 0 .783-.09 1.106-.275 1.374-.792 1.683-3.263.973-6.365C22.02 15.096 24 13.59 24 12.004c0-1.59-1.99-3.097-5.043-4.032.704-3.11.39-5.587-.988-6.38-.318-.184-.688-.277-1.092-.278zm-.005 1.09v.006c.225 0 .406.044.558.127.666.382.955 1.835.73 3.704-.054.46-.142.945-.25 1.44-.96-.236-2.006-.417-3.107-.534-.66-.905-1.345-1.727-2.035-2.447 1.592-1.48 3.087-2.292 4.105-2.295zm-9.77.02c1.012 0 2.514.808 4.11 2.28-.686.72-1.37 1.537-2.02 2.442-1.107.117-2.154.298-3.113.538-.112-.49-.195-.964-.254-1.42-.23-1.868.054-3.32.714-3.707.19-.09.4-.127.563-.132zm4.882 3.05c.455.468.91.992 1.36 1.564-.44-.02-.89-.034-1.345-.034-.46 0-.915.01-1.36.034.44-.572.895-1.096 1.345-1.565zM12 8.1c.74 0 1.477.034 2.202.093.406.582.802 1.203 1.183 1.86.372.64.71 1.29 1.018 1.946-.308.655-.646 1.31-1.013 1.95-.38.66-.773 1.288-1.18 1.87-.728.063-1.466.098-2.21.098-.74 0-1.477-.035-2.202-.093-.406-.582-.802-1.204-1.183-1.86-.372-.64-.71-1.29-1.018-1.946.303-.657.646-1.313 1.013-1.954.38-.66.773-1.286 1.18-1.868.728-.064 1.466-.098 2.21-.098zm-3.635.254c-.24.377-.48.763-.704 1.16-.225.39-.435.782-.635 1.174-.265-.656-.49-1.31-.676-1.947.64-.15 1.315-.283 2.015-.386zm7.26 0c.695.103 1.365.23 2.006.387-.18.632-.405 1.282-.66 1.933-.2-.39-.41-.783-.64-1.174-.225-.392-.465-.774-.705-1.146zm3.063.675c.484.15.944.317 1.375.498 1.732.74 2.852 1.708 2.852 2.476-.005.768-1.125 1.74-2.857 2.475-.42.18-.88.342-1.355.493-.28-.958-.646-1.956-1.1-2.98.45-1.017.81-2.01 1.085-2.964zm-13.395.004c.278.96.645 1.957 1.1 2.98-.45 1.017-.812 2.01-1.086 2.964-.484-.15-.944-.318-1.37-.5-1.732-.737-2.852-1.706-2.852-2.474 0-.768 1.12-1.742 2.852-2.476.42-.18.88-.342 1.356-.494zm11.678 4.28c.265.657.49 1.312.676 1.948-.64.157-1.316.29-2.016.39.24-.375.48-.762.705-1.158.225-.39.435-.788.636-1.18zm-9.945.02c.2.392.41.783.64 1.175.23.39.465.772.705 1.143-.695-.102-1.365-.23-2.006-.386.18-.63.406-1.282.66-1.933zM17.92 16.32c.112.493.2.968.254 1.423.23 1.868-.054 3.32-.714 3.708-.147.09-.338.128-.563.128-1.012 0-2.514-.807-4.11-2.28.686-.72 1.37-1.536 2.02-2.44 1.107-.118 2.154-.3 3.113-.54zm-11.83.01c.96.234 2.006.415 3.107.532.66.905 1.345 1.727 2.035 2.446-1.595 1.483-3.092 2.295-4.11 2.295-.22-.005-.406-.05-.553-.132-.666-.38-.955-1.834-.73-3.703.054-.46.142-.944.25-1.438zm4.56.64c.44.02.89.034 1.345.034.46 0 .915-.01 1.36-.034-.44.572-.895 1.095-1.345 1.565-.455-.47-.91-.993-1.36-1.565z"/>
    </symbol>
    <symbol id="logo-youtube" viewBox="0 0 24 24">
      <path fill="#FF0000" d="M23.498 6.186a3.016 3.016 0 0 0-2.122-2.136C19.505 3.545 12 3.545 12 3.545s-7.505 0-9.377.505A3.017 3.017 0 0 0 .502 6.186C0 8.07 0 12 0 12s0 3.93.502 5.814a3.016 3.016 0 0 0 2.122 2.136c1.871.505 9.376.505 9.376.505s7.505 0 9.377-.505a3.015 3.015 0 0 0 2.122-2.136C24 15.93 24 12 24 12s0-3.93-.502-5.814zM9.545 15.568V8.432L15.818 12l-6.273 3.568z"/>
    </symbol>
    <symbol id="logo-chatgpt" viewBox="0 0 320 320">
      <path fill="#10A37F" d="m297.06 130.97c7.26-21.79 4.76-45.66-6.85-65.48-17.46-30.4-52.56-46.04-86.84-38.68-15.25-17.18-37.16-26.95-60.13-26.81-35.04-.08-66.13 22.48-76.91 55.82-22.51 4.61-41.94 18.7-53.31 38.67-17.59 30.32-13.58 68.54 9.92 94.54-7.26 21.79-4.76 45.66 6.85 65.48 17.46 30.4 52.56 46.04 86.84 38.68 15.24 17.18 37.16 26.95 60.13 26.8 35.06.09 66.16-22.49 76.94-55.86 22.51-4.61 41.94-18.7 53.31-38.67 17.57-30.32 13.55-68.51-9.94-94.51zm-120.28 168.11c-14.03.02-27.62-4.89-38.39-13.88.49-.26 1.34-.73 1.89-1.07l63.72-36.8c3.26-1.85 5.26-5.32 5.24-9.07v-89.83l26.93 15.55c.29.14.48.42.52.74v74.39c-.04 33.08-26.83 59.9-59.91 59.97zm-128.84-55.03c-7.03-12.14-9.56-26.37-7.15-40.18.47.28 1.3.79 1.89 1.13l63.72 36.8c3.23 1.89 7.23 1.89 10.47 0l77.79-44.92v31.1c.02.32-.13.63-.38.83l-64.41 37.19c-28.69 16.52-65.33 6.7-81.92-21.95zm-16.77-139.09c7-12.16 18.05-21.46 31.21-26.29 0 .55-.03 1.52-.03 2.2v73.61c-.02 3.74 1.98 7.21 5.23 9.06l77.79 44.91-26.93 15.55c-.27.18-.61.21-.91.08l-64.42-37.22c-28.63-16.58-38.45-53.21-21.95-81.89zm221.26 51.49-77.79-44.92 26.93-15.54c.27-.18.61-.21.91-.08l64.42 37.19c28.68 16.57 38.51 53.26 21.94 81.94-7.01 12.14-18.05 21.44-31.2 26.28v-75.81c.03-3.74-1.96-7.2-5.2-9.06zm26.8-40.34c-.47-.29-1.3-.79-1.89-1.13l-63.72-36.8c-3.23-1.89-7.23-1.89-10.47 0l-77.79 44.92v-31.1c-.02-.32.13-.63.38-.83l64.41-37.16c28.69-16.55 65.37-6.7 81.91 22 6.99 12.12 9.52 26.31 7.15 40.1zm-168.51 55.43-26.94-15.55c-.29-.14-.48-.42-.52-.74v-74.39c.02-33.12 26.89-59.96 60.01-59.94 14.01 0 27.57 4.92 38.34 13.88-.49.26-1.33.73-1.89 1.07l-63.72 36.8c-3.26 1.85-5.26 5.31-5.24 9.06l-.04 89.79zm14.63-31.54 34.65-20.01 34.65 20v40.01l-34.65 20-34.65-20z"/>
    </symbol>
    <symbol id="logo-nginx" viewBox="0 0 24 24">
      <path fill="#009639" d="M12 0L1.605 6v12L12 24l10.395-6V6L12 0zm6 16.59c0 .705-.646 1.29-1.529 1.29-.631 0-1.351-.255-1.801-.81l-6-7.141v6.66c0 .721-.57 1.29-1.274 1.29H7.32c-.721 0-1.29-.6-1.29-1.29V7.41c0-.705.63-1.29 1.5-1.29.646 0 1.38.255 1.83.81l5.97 7.141V7.41c0-.721.6-1.29 1.29-1.29h.075c.72 0 1.29.6 1.29 1.29v9.18H18z"/>
    </symbol>
    <symbol id="logo-github-actions" viewBox="0 0 24 24">
      <path fill="#2088FF" d="M10.984 13.836a.5.5 0 0 1-.353-.146l-.745-.743a.5.5 0 1 1 .706-.708l.392.391 1.181-1.18a.5.5 0 0 1 .708.707l-1.535 1.533a.504.504 0 0 1-.354.146zm9.353-.147l1.534-1.532a.5.5 0 0 0-.707-.707l-1.181 1.18-.392-.391a.5.5 0 1 0-.706.708l.746.743a.497.497 0 0 0 .706-.001zM4.527 7.452l2.557-1.585A1 1 0 0 0 7.09 4.17L4.533 2.56A1 1 0 0 0 3 3.406v3.196a1.001 1.001 0 0 0 1.527.85zm2.03-2.436L4 6.602V3.406l2.557 1.61zM24 12.5c0 1.93-1.57 3.5-3.5 3.5a3.503 3.503 0 0 1-3.46-3h-2.08a3.503 3.503 0 0 1-3.46 3 3.502 3.502 0 0 1-3.46-3h-.558c-.972 0-1.85-.399-2.482-1.042V17c0 1.654 1.346 3 3 3h.04c.244-1.693 1.7-3 3.46-3 1.93 0 3.5 1.57 3.5 3.5S13.43 24 11.5 24a3.502 3.502 0 0 1-3.46-3H8c-2.206 0-4-1.794-4-4V9.899A5.008 5.008 0 0 1 0 5c0-2.757 2.243-5 5-5s5 2.243 5 5a5.005 5.005 0 0 1-4.952 4.998A2.482 2.482 0 0 0 7.482 12h.558c.244-1.693 1.7-3 3.46-3a3.502 3.502 0 0 1 3.46 3h2.08a3.503 3.503 0 0 1 3.46-3c1.93 0 3.5 1.57 3.5 3.5zm-15 8c0 1.378 1.122 2.5 2.5 2.5s2.5-1.122 2.5-2.5-1.122-2.5-2.5-2.5S9 19.122 9 20.5zM5 9c2.206 0 4-1.794 4-4S7.206 1 5 1 1 2.794 1 5s1.794 4 4 4zm9 3.5c0-1.378-1.122-2.5-2.5-2.5S9 11.122 9 12.5s1.122 2.5 2.5 2.5 2.5-1.122 2.5-2.5zm9 0c0-1.378-1.122-2.5-2.5-2.5S18 11.122 18 12.5s1.122 2.5 2.5 2.5 2.5-1.122 2.5-2.5zm-13 8a.5.5 0 1 0 1 0 .5.5 0 0 0-1 0zm2 0a.5.5 0 1 0 1 0 .5.5 0 0 0-1 0zm12 0c0 1.93-1.57 3.5-3.5 3.5a3.503 3.503 0 0 1-3.46-3.002c-.007.001-.013.005-.021.005l-.506.017h-.017a.5.5 0 0 1-.016-.999l.506-.017c.018-.002.035.006.052.007A3.503 3.503 0 0 1 20.5 17c1.93 0 3.5 1.57 3.5 3.5zm-1 0c0-1.378-1.122-2.5-2.5-2.5S18 19.122 18 20.5s1.122 2.5 2.5 2.5 2.5-1.122 2.5-2.5z"/>
    </symbol>
    <symbol id="logo-qq" viewBox="0 0 24 24">
      <path fill="#1D9BF0" d="M21.395 15.035a40 40 0 0 0-.803-2.264l-1.079-2.695c.001-.032.014-.562.014-.836C19.526 4.632 17.351 0 12 0S4.474 4.632 4.474 9.241c0 .274.013.804.014.836l-1.08 2.695a39 39 0 0 0-.802 2.264c-1.021 3.283-.69 4.643-.438 4.673.54.065 2.103-2.472 2.103-2.472 0 1.469.756 3.387 2.394 4.771-.612.188-1.363.479-1.845.835-.434.32-.379.646-.301.778.343.578 5.883.369 7.482.189 1.6.18 7.14.389 7.483-.189.078-.132.132-.458-.301-.778-.483-.356-1.233-.646-1.846-.836 1.637-1.384 2.393-3.302 2.393-4.771 0 0 1.563 2.537 2.103 2.472.251-.03.581-1.39-.438-4.673"/>
    </symbol>
    <symbol id="logo-git" viewBox="0 0 78 78">
      <path fill="#f03c2e" transform="translate(10 10) rotate(-45 29 29)" d="M5,58c-2.76142,0 -5,-2.23858 -5,-5v-48c0,-2.76142 2.23858,-5 5,-5h33v12.54404c-2.06553,0.94801 -3.5,3.03446 -3.5,5.45596c0,0.73514 0.13221,1.43941 0.37415,2.09031l-15.28384,15.28384c-0.6509,-0.24194 -1.35517,-0.37415 -2.09031,-0.37415c-3.31371,0 -6,2.68629 -6,6c0,3.31371 2.68629,6 6,6c3.31371,0 6,-2.68629 6,-6c0,-0.73514 -0.13221,-1.43941 -0.37415,-2.09031l14.87415,-14.87415l0,11.50851c-2.06553,0.94801 -3.5,3.03446 -3.5,5.45596c0,3.31371 2.68629,6 6,6c3.31371,0 6,-2.68629 6,-6c0,-2.42149 -1.43447,-4.50795 -3.5,-5.45596l0,-12.08808c2.06553,-0.94801 3.5,-3.03446 3.5,-5.45596c0,-2.42149 -1.43447,-4.50795 -3.5,-5.45596l0,-12.54404h10c2.76142,0 5,2.23858 5,5v48c0,2.76142 -2.23858,5 -5,5z"/>
    </symbol>
    <linearGradient id="zensical-linear-1" x1="0" y1="0" x2="1" y2="0" gradientUnits="userSpaceOnUse" gradientTransform="matrix(106.08,-106.08,106.08,106.08,96.96,203.04)">
      <stop offset="0" style="stop-color:rgb(255,138,140);stop-opacity:1"/>
      <stop offset="1" style="stop-color:rgb(255,193,32);stop-opacity:1"/>
    </linearGradient>
    <linearGradient id="zensical-linear-2" x1="0" y1="0" x2="1" y2="0" gradientUnits="userSpaceOnUse" gradientTransform="matrix(-36.51,21.08,-21.08,-36.51,150.29,160.35)">
      <stop offset="0" style="stop-color:rgb(255,119,53);stop-opacity:1"/>
      <stop offset="0.25" style="stop-color:rgb(255,119,53);stop-opacity:1"/>
      <stop offset="0.7" style="stop-color:rgb(255,152,113);stop-opacity:0"/>
      <stop offset="1" style="stop-color:rgb(255,152,113);stop-opacity:0"/>
    </linearGradient>
    <linearGradient id="zensical-linear-3" x1="0" y1="0" x2="1" y2="0" gradientUnits="userSpaceOnUse" gradientTransform="matrix(2.05435e-15,-33.55,33.55,2.05435e-15,167.42,223.86)">
      <stop offset="0" style="stop-color:rgb(255,152,113);stop-opacity:0"/>
      <stop offset="0.3" style="stop-color:rgb(255,152,113);stop-opacity:0"/>
      <stop offset="0.75" style="stop-color:rgb(255,119,53);stop-opacity:1"/>
      <stop offset="1" style="stop-color:rgb(255,119,53);stop-opacity:1"/>
    </linearGradient>
    <linearGradient id="zensical-linear-4" x1="0" y1="0" x2="1" y2="0" gradientUnits="userSpaceOnUse" gradientTransform="matrix(2.29315e-15,-37.45,37.45,2.29315e-15,145.22,158.59)">
      <stop offset="0" style="stop-color:rgb(255,163,92);stop-opacity:0"/>
      <stop offset="0.2" style="stop-color:rgb(255,163,92);stop-opacity:0"/>
      <stop offset="0.75" style="stop-color:rgb(255,119,53);stop-opacity:1"/>
      <stop offset="1" style="stop-color:rgb(255,119,53);stop-opacity:1"/>
    </linearGradient>
    <symbol id="logo-zensical" viewBox="75 75 150 150">
      <path d="M150,75C191.43,75 225,108.58 225,150C225,161.05 222.64,171.52 218.33,180.98C215.7,186.81 210.21,190.31 203.85,190.31L170.84,190.31L175.35,202.74C177.03,207.32 176.63,211.9 174.17,216.14C171.75,220.35 167.97,223.01 163.16,223.85C158.88,224.62 154.5,225 149.99,225C108.56,225 74.99,191.42 74.99,150C74.99,138.92 77.41,128.38 81.73,118.91C84.39,113.12 89.85,109.58 96.21,109.58L129.08,109.58L124.6,97.29C122.95,92.71 123.35,88.1 125.78,83.89C128.2,79.68 131.98,77.02 136.79,76.18C141.07,75.41 145.48,75 149.99,75L150,75ZM207.83,176.24C211.47,168.26 213.49,159.37 213.49,150C213.49,114.94 185.06,86.55 150.01,86.55C146.2,86.55 142.47,86.89 138.83,87.53C137.55,87.77 136.51,88.47 135.83,89.62C135.19,90.77 135.09,92.01 135.53,93.26L141.49,109.59L172.31,109.59C179.62,109.59 185.82,114.34 187.7,121.41C189.59,128.48 186.62,135.66 180.29,139.33L157.15,152.67L166.65,178.8L203.9,178.8C205.62,178.8 207.1,177.82 207.84,176.24L207.83,176.24ZM145.66,121.14L153.1,141.58L174.52,129.22C176.24,128.21 177.05,126.26 176.54,124.34C176.03,122.42 174.35,121.14 172.36,121.14L145.65,121.14L145.66,121.14ZM92.25,123.67C88.58,131.69 86.56,140.61 86.56,150.01C86.56,185.07 114.95,213.49 150.01,213.49C153.82,213.49 157.55,213.15 161.16,212.51C163.82,212.04 165.4,209.31 164.46,206.78L158.47,190.31L128.13,190.31C120.82,190.31 114.66,185.56 112.77,178.52C110.85,171.45 113.85,164.24 120.18,160.6L142.88,147.47L133.32,121.13L96.21,121.13C94.49,121.13 93.01,122.07 92.27,123.66L92.25,123.67ZM154.29,178.8L146.91,158.59L125.89,170.71C124.17,171.72 123.36,173.67 123.87,175.59C124.41,177.51 126.09,178.79 128.08,178.79L154.28,178.79L154.29,178.8Z" style="fill:url(#zensical-linear-1);fill-rule:nonzero;"/>
      <path d="M128.11,190.31L128.11,178.79L128.08,178.79C126.09,178.79 124.41,177.51 123.87,175.59C123.36,173.67 124.17,171.72 125.89,170.71L146.91,158.59L142.87,147.48L120.17,160.61C113.84,164.25 110.84,171.45 112.76,178.53C114.65,185.57 120.81,190.32 128.12,190.32L128.11,190.31Z" style="fill:url(#zensical-linear-2);fill-rule:nonzero;"/>
      <path d="M170.85,190.31L175.36,202.74C177.04,207.32 176.64,211.9 174.18,216.14C171.76,220.35 167.98,223.01 163.17,223.85L161.15,212.5C163.81,212.03 165.39,209.3 164.45,206.77L158.46,190.3L170.85,190.3L170.85,190.31Z" style="fill:url(#zensical-linear-3);fill-rule:nonzero;"/>
      <path d="M133.3,121.14L145.66,121.14L157.14,152.66L146.9,158.59L133.3,121.14Z" style="fill:url(#zensical-linear-4);fill-rule:nonzero;"/>
    </symbol>
  </defs>
  <g id="client-entrypoints" class="shadow" transform="translate(70 55)">
    <rect class="zone" width="300" height="490" rx="18"/>
    <rect class="zone-entry-header" width="300" height="58" clip-path="url(#entry-clip)"/>
    <text class="section-title" x="26" y="38">外部入口</text>

    <g transform="translate(28 72)">
      <rect class="node node-client" width="244" height="188" rx="14"/>
      <use href="#logo-youtube" x="18" y="18" width="46" height="46"/>
      <text class="node-title" x="82" y="40">公开视频站</text>
      <text class="node-subtitle" x="82" y="64">YouTube / Bilibili</text>
      <g transform="translate(18 92)">
        <rect class="node node-client" width="208" height="74" rx="12"/>
        <use href="#logo-tampermonkey" x="16" y="18" width="36" height="36"/>
        <text class="node-title" x="68" y="31">浏览器插件</text>
        <text class="node-subtitle" x="68" y="55">字幕采集 / 选词</text>
      </g>
    </g>

    <g transform="translate(28 280)">
      <rect class="node node-client" width="244" height="88" rx="14"/>
      <use href="#logo-react" x="20" y="23" width="38" height="38"/>
      <text class="node-title" x="78" y="34">Web 前端</text>
      <text class="node-subtitle" x="78" y="56">OCR / 词库</text>
      <text class="node-subtitle" x="78" y="74">复习工作台</text>
    </g>

    <g transform="translate(28 390)">
      <rect class="node node-client" width="244" height="78" rx="14"/>
      <use href="#logo-qq" x="18" y="17" width="36" height="36"/>
      <text class="node-title" x="78" y="32">QQ 用户</text>
      <text class="node-subtitle" x="78" y="56">聊天指令入口</text>
    </g>
  </g>

  <g id="cloud-server" class="shadow" transform="translate(430 55)">
    <rect class="server-shell" width="930" height="790" rx="24"/>
    <rect class="server-header" width="930" height="74" clip-path="url(#server-clip)"/>
    <text class="section-title" x="28" y="36">轻量云服务器实例</text>
    <text class="node-subtitle" x="28" y="58">Nginx + Docker Compose + JSON 数据卷</text>

    <g id="nginx" transform="translate(34 106)">
      <rect class="zone-edge" width="862" height="84" rx="16"/>
      <use href="#logo-nginx" x="26" y="20" width="44" height="44"/>
      <text class="node-title" x="88" y="35">Nginx 反向代理</text>
      <text class="node-subtitle" x="88" y="60">公网域名 / HTTPS / 端口转发</text>
    </g>

    <g id="docker-compose" transform="translate(34 222)">
      <rect class="zone-docker" width="862" height="548" rx="18"/>
      <rect class="zone-docker-header" width="862" height="92" clip-path="url(#docker-clip)"/>
      <use href="#logo-docker" x="28" y="23" width="58" height="58"/>
      <text class="section-title" x="108" y="40">Docker Compose 封装层</text>
      <text class="node-subtitle mono" x="108" y="66">docker-compose.yml</text>

      <g id="master-container" transform="translate(26 100)">
        <rect class="node node-service" width="510" height="226" rx="16"/>
        <text class="node-title" x="24" y="36">master-server 容器</text>
        <text class="node-subtitle" x="24" y="62">FastAPI + React build</text>

        <rect class="chip" x="24" y="92" width="138" height="38" rx="19"/>
        <text class="chip-text" x="62" y="116">API 路由</text>

        <rect class="chip" x="184" y="92" width="142" height="38" rx="19"/>
        <text class="chip-text" x="222" y="116">LLM 服务</text>

        <rect class="chip" x="348" y="92" width="132" height="38" rx="19"/>
        <text class="chip-text" x="384" y="116">核心逻辑</text>

        <rect class="chip" x="24" y="152" width="198" height="38" rx="19"/>
        <text class="chip-text" x="58" y="176">OCR / PDF / 图片</text>

        <rect class="chip" x="248" y="152" width="232" height="38" rx="19"/>
        <text class="chip-text" x="314" y="176">词库 / 精修 / 复习</text>
      </g>

      <g id="qq-container" transform="translate(574 100)">
        <rect class="node node-service" width="262" height="226" rx="16"/>
        <text class="node-title" x="24" y="42">qq-bot 容器</text>
        <text class="node-subtitle" x="24" y="70">QQ 网关连接器</text>
        <rect class="chip" x="24" y="104" width="204" height="38" rx="19"/>
        <text class="chip-text" x="45" y="128">命令状态机</text>
        <rect class="chip" x="24" y="162" width="204" height="38" rx="19"/>
        <text class="chip-text" x="45" y="186">调用 Master API</text>
      </g>

      <g id="json-store" transform="translate(26 370)">
        <rect class="zone-data" width="810" height="146" rx="18"/>
        <rect class="zone-data-header" width="810" height="54" clip-path="url(#volume-clip)"/>
        <text class="section-title" x="26" y="36">挂载卷</text>

        <g transform="translate(22 68)">
          <rect class="node node-data-sync" width="176" height="54" rx="12"/>
          <text class="node-subtitle" x="16" y="33">data/ 词库数据</text>
        </g>
        <g transform="translate(220 68)">
          <rect class="node node-data" width="176" height="54" rx="12"/>
          <text class="node-subtitle" x="16" y="33">任务状态</text>
        </g>
        <g transform="translate(418 68)">
          <rect class="node node-data" width="176" height="54" rx="12"/>
          <text class="node-subtitle" x="16" y="33">临时文件</text>
        </g>
        <g transform="translate(616 68)">
          <rect class="node node-data" width="160" height="54" rx="12"/>
          <text class="node-subtitle" x="16" y="33">运行配置</text>
        </g>
      </g>
    </g>
  </g>

  <g id="external-services" class="shadow" transform="translate(1410 55)">
    <rect class="zone" width="320" height="590" rx="18"/>
    <rect class="zone-external-header" width="320" height="58" clip-path="url(#external-clip)"/>
    <text class="section-title" x="26" y="38">外部服务</text>

    <g transform="translate(28 86)">
      <rect class="node node-external" width="264" height="118" rx="14"/>
      <use href="#logo-chatgpt" x="20" y="34" width="48" height="48"/>
      <text class="node-title" x="84" y="40">LLM API</text>
      <text class="node-subtitle" x="84" y="68">大模型推理服务</text>
      <text class="node-subtitle" x="84" y="92">文本 / 图像理解</text>
    </g>

    <g transform="translate(28 250)">
      <rect class="node node-qq-platform" width="264" height="122" rx="14"/>
      <use href="#logo-qq" x="20" y="36" width="48" height="48"/>
      <text class="node-title" x="84" y="46">QQ 机器人平台</text>
      <text class="node-subtitle" x="84" y="74">QQ 消息网关</text>
      <text class="node-subtitle" x="84" y="98">事件推送 / 消息回复</text>
    </g>

    <g transform="translate(28 418)">
      <rect class="node node-build" width="264" height="122" rx="14"/>
      <use href="#logo-zensical" x="20" y="35" width="50" height="50"/>
      <text class="node-title" x="84" y="46">Zensical 静态站</text>
      <text class="node-subtitle" x="84" y="74">静态词库站点</text>
      <text class="node-subtitle" x="84" y="98">GitHub Pages</text>
    </g>
  </g>

  <g id="source-control" class="shadow" transform="translate(70 560)">
    <rect class="zone" width="300" height="285" rx="18"/>
    <rect class="zone-build-header" width="300" height="56" clip-path="url(#source-clip)"/>
    <text class="section-title" x="26" y="36">版本与发布</text>

    <g transform="translate(34 68)">
      <rect class="node node-build" width="230" height="74" rx="14"/>
      <use href="#logo-git" x="18" y="17" width="40" height="40"/>
      <text class="node-title" x="78" y="45">Git 仓库</text>
    </g>

    <g transform="translate(34 182)">
      <rect class="node node-build" width="230" height="74" rx="14"/>
      <use href="#logo-github-actions" x="18" y="16" width="42" height="42"/>
      <text class="node-title" x="78" y="45">GitHub Actions</text>
    </g>
  </g>

  <g id="edges">
    <path d="M324 256 H392" style="fill:none;stroke:#41516d;stroke-width:2.5;stroke-linecap:square;stroke-linejoin:miter"/>
    <path d="M342 379 H392" style="fill:none;stroke:#41516d;stroke-width:2.5;stroke-linecap:square;stroke-linejoin:miter"/>
    <path class="arrow" d="M392 379 V203 H464"/>

    <path class="arrow" d="M895 245 V377"/>

    <path class="arrow" d="M1038 490 H1000"/>

    <path class="arrow-ws" d="M98 484 H42 V890 H1760 V366 H1702"/>

    <path class="arrow-ws" d="M1438 366 H1388 V490 H1300"/>

    <path class="arrow-llm" d="M1000 468 H1018 V350 H1388 V200 H1438"/>

    <path class="arrow-llm" d="M116 244 H42 V40 H1760 V200 H1702"/>

    <path class="arrow-data" d="M745 603 V647"/>
    <path class="arrow-data" d="M1169 603 V647"/>

    <path class="arrow-build" d="M220 702 V742"/>

    <path class="arrow-build" d="M104 665 H58 V268 H116"/>
    <path class="arrow-build" d="M334 665 H430"/>

    <path class="arrow-build" d="M220 816 V865 H1388 V534 H1438"/>
  </g>

  <g id="legend" class="shadow" transform="translate(1410 685)">
    <rect class="zone" width="320" height="175" rx="18"/>
    <rect class="zone-legend-header" width="320" height="50" clip-path="url(#legend-clip)"/>
    <text class="section-title" x="26" y="36">图例</text>

    <rect class="chip" x="24" y="54" width="116" height="30" rx="15"/>
    <path class="arrow" d="M38 69 H66"/>
    <text class="chip-text" x="78" y="74">HTTP</text>

    <rect class="chip" x="166" y="54" width="122" height="30" rx="15"/>
    <path class="arrow-data" d="M180 69 H208"/>
    <text class="chip-text" x="220" y="74">文件 I/O</text>

    <rect class="chip" x="24" y="92" width="116" height="30" rx="15"/>
    <path class="arrow-llm" d="M38 107 H66"/>
    <text class="chip-text" x="78" y="112">LLM</text>

    <rect class="chip" x="166" y="92" width="130" height="30" rx="15"/>
    <path class="arrow-ws" d="M180 107 H208"/>
    <text class="chip-text" x="220" y="112">WebSocket</text>

    <rect class="chip" x="24" y="130" width="116" height="30" rx="15"/>
    <path class="arrow-build" d="M38 145 H66"/>
    <text class="chip-text" x="78" y="150">构建</text>
  </g>
</svg>
